<?xml version="1.0" encoding="UTF-8" standalone="no"?>
<!DOCTYPE svg PUBLIC "-//W3C//DTD SVG 1.1//EN" "http://www.w3.org/Graphics/SVG/1.1/DTD/svg11.dtd">
<svg width="100%" height="100%" viewBox="0 0 362 458" version="1.1" xmlns="http://www.w3.org/2000/svg" xmlns:xlink="http://www.w3.org/1999/xlink" xml:space="preserve" xmlns:serif="http://www.serif.com/" style="fill-rule:evenodd;clip-rule:evenodd;stroke-linejoin:round;stroke-miterlimit:2;">
    <g id="_321x406-html-version-export" serif:id="321x406 html version export" transform="matrix(0.888084,0,0,0.888084,20.5815,25.564)">
        <g transform="matrix(0.832388,0,0,0.832388,-0.000829869,-2.67221e-14)">
            <path d="M0.48,105.261C-0.089,81.655 0,58.127 0,35.036C69.965,11.947 143.2,-0 216.989,-0C290.777,-0 364.012,11.947 433.977,35.036C433.977,58.08 434.547,81.717 433.977,105.261C364.258,82.316 290.744,70.264 217.228,70.264C143.544,70.264 70.346,82.212 0.48,105.261Z" style="fill:rgb(15,14,7);fill-rule:nonzero;"/>
        </g>
        <g transform="matrix(0.601396,0,0,0.601396,-0.80423,55.7133)">
            <path d="M602,53.051C602,198.732 602.596,356.311 523.067,484.405C512.729,501.057 501.232,516.978 488.661,532.015C469.183,555.312 447.255,576.501 423.411,595.301C386.364,624.51 345.118,648.011 302,667C259.02,648.072 217.914,624.639 180.963,595.555C157.162,576.822 135.257,555.718 115.778,532.519C103.177,517.511 91.65,501.626 81.276,484.999C1.312,356.836 2,198.963 2,53.051C98.731,21.129 199.983,4.611 302,4.611C404.017,4.611 505.269,21.129 602,53.051Z" style="fill:rgb(35,218,28);fill-rule:nonzero;"/>
        </g>
        <g transform="matrix(0.174224,4.26726e-17,-4.26501e-17,0.174132,94.9264,104.868)">
            <path d="M491.307,1582.46C491.307,1582.46 276.366,1523.55 50.819,1359.68C-174.728,1195.81 -297.172,1009.6 -297.172,1009.6L-297.172,1009.6C-297.172,1009.6 -307.569,786.97 -221.417,521.824C-135.266,256.678 4,82.682 4,82.682C4,82.682 212.516,4 491.307,4C770.098,4 978.613,82.682 978.613,82.682C978.613,82.682 1117.88,256.678 1204.03,521.824C1290.18,786.97 1279.79,1009.6 1279.79,1009.6C1279.79,1009.6 1157.34,1195.81 931.794,1359.68C706.248,1523.55 491.307,1582.46 491.307,1582.46" style="fill:rgb(255,214,10);"/>
        </g>
        <g transform="matrix(0.213881,0.210876,-0.210876,0.213881,346.927,-196.87)">
            <path d="M404.274,1197.08L600.875,1266.62L773.034,1141.54L767.65,1350.01L939.809,1475.09L739.88,1534.39L674.121,1736.78L555.943,1564.96L343.142,1564.96L470.033,1399.47L404.274,1197.08Z" style="fill:white;"/>
        </g>
        <g transform="matrix(0.288742,0,0,0.288742,-495.167,-882.557)">
            <circle cx="2341.5" cy="3894.58" r="93.143" style="fill:rgb(250,46,0);"/>
        </g>
        <g transform="matrix(0.832871,0,0,0.832871,-1170.44,-1060.96)">
            <g transform="matrix(19.3975,-4.87225,4.87225,19.3975,1446.26,1332.92)">
                <path d="M0.525,-0.06L0.014,-0.06L0.299,-0.368C0.347,-0.419 0.381,-0.459 0.401,-0.488C0.421,-0.517 0.431,-0.551 0.431,-0.588C0.431,-0.625 0.417,-0.658 0.388,-0.686C0.359,-0.714 0.323,-0.728 0.28,-0.728C0.237,-0.728 0.201,-0.713 0.172,-0.683C0.143,-0.652 0.127,-0.609 0.123,-0.553L0.04,-0.553C0.043,-0.632 0.068,-0.694 0.115,-0.741C0.162,-0.787 0.218,-0.81 0.285,-0.81C0.351,-0.81 0.406,-0.789 0.45,-0.746C0.493,-0.703 0.515,-0.65 0.515,-0.588C0.515,-0.543 0.503,-0.5 0.479,-0.461C0.455,-0.422 0.419,-0.376 0.37,-0.324L0.202,-0.143L0.525,-0.143L0.525,-0.06Z" style="fill:rgb(255,213,0);fill-rule:nonzero;"/>
            </g>
            <g transform="matrix(19.4747,-4.55361,4.55361,19.4747,1457.02,1330.22)">
                <path d="M0.273,-0.81C0.352,-0.81 0.414,-0.777 0.46,-0.711C0.506,-0.644 0.529,-0.549 0.529,-0.426C0.529,-0.302 0.506,-0.207 0.459,-0.141C0.412,-0.075 0.35,-0.042 0.272,-0.042C0.193,-0.042 0.132,-0.075 0.09,-0.14C0.047,-0.205 0.025,-0.3 0.025,-0.427C0.025,-0.553 0.047,-0.648 0.09,-0.713C0.132,-0.778 0.194,-0.81 0.273,-0.81ZM0.275,-0.121C0.33,-0.121 0.372,-0.148 0.403,-0.201C0.433,-0.254 0.448,-0.329 0.448,-0.426C0.448,-0.523 0.432,-0.598 0.401,-0.65C0.37,-0.702 0.327,-0.728 0.275,-0.728C0.222,-0.728 0.18,-0.702 0.151,-0.65C0.122,-0.598 0.107,-0.523 0.107,-0.424C0.107,-0.222 0.163,-0.121 0.275,-0.121Z" style="fill:rgb(255,213,0);fill-rule:nonzero;"/>
            </g>
            <g transform="matrix(19.5426,-4.25267,4.25267,19.5426,1467.78,1327.71)">
                <path d="M0.525,-0.06L0.014,-0.06L0.299,-0.368C0.347,-0.419 0.381,-0.459 0.401,-0.488C0.421,-0.517 0.431,-0.551 0.431,-0.588C0.431,-0.625 0.417,-0.658 0.388,-0.686C0.359,-0.714 0.323,-0.728 0.28,-0.728C0.237,-0.728 0.201,-0.713 0.172,-0.683C0.143,-0.652 0.127,-0.609 0.123,-0.553L0.04,-0.553C0.043,-0.632 0.068,-0.694 0.115,-0.741C0.162,-0.787 0.218,-0.81 0.285,-0.81C0.351,-0.81 0.406,-0.789 0.45,-0.746C0.493,-0.703 0.515,-0.65 0.515,-0.588C0.515,-0.543 0.503,-0.5 0.479,-0.461C0.455,-0.422 0.419,-0.376 0.37,-0.324L0.202,-0.143L0.525,-0.143L0.525,-0.06Z" style="fill:rgb(255,213,0);fill-rule:nonzero;"/>
            </g>
            <g transform="matrix(19.6063,-3.94866,3.94866,19.6063,1478.63,1325.35)">
                <path d="M0.399,-0.472C0.438,-0.453 0.469,-0.426 0.491,-0.392C0.512,-0.358 0.523,-0.321 0.523,-0.281C0.523,-0.216 0.499,-0.16 0.452,-0.113C0.404,-0.066 0.344,-0.042 0.271,-0.042C0.206,-0.042 0.152,-0.061 0.111,-0.099C0.069,-0.136 0.041,-0.192 0.026,-0.266L0.111,-0.266C0.124,-0.219 0.142,-0.184 0.168,-0.161C0.193,-0.137 0.228,-0.126 0.275,-0.126C0.321,-0.126 0.36,-0.14 0.391,-0.17C0.422,-0.199 0.438,-0.235 0.438,-0.279C0.438,-0.323 0.42,-0.358 0.385,-0.384C0.349,-0.41 0.296,-0.424 0.227,-0.425L0.227,-0.505C0.277,-0.505 0.317,-0.516 0.348,-0.537C0.379,-0.558 0.394,-0.585 0.394,-0.617C0.394,-0.648 0.382,-0.675 0.359,-0.696C0.335,-0.716 0.306,-0.727 0.273,-0.727C0.239,-0.727 0.212,-0.717 0.191,-0.699C0.169,-0.68 0.152,-0.651 0.137,-0.612L0.05,-0.612C0.065,-0.676 0.091,-0.725 0.13,-0.759C0.169,-0.793 0.216,-0.81 0.273,-0.81C0.33,-0.81 0.379,-0.791 0.421,-0.754C0.462,-0.717 0.483,-0.671 0.483,-0.618C0.483,-0.557 0.455,-0.508 0.399,-0.472Z" style="fill:rgb(255,213,0);fill-rule:nonzero;"/>
            </g>
            <g transform="matrix(19.6531,-3.70896,3.70896,19.6531,1489.48,1323.18)">
                <rect x="0.025" y="-0.397" width="0.282" height="0.074" style="fill:rgb(255,213,0);fill-rule:nonzero;"/>
            </g>
            <g transform="matrix(19.6958,-3.47522,3.47522,19.6958,1495.99,1321.94)">
                <path d="M0.525,-0.06L0.014,-0.06L0.299,-0.368C0.347,-0.419 0.381,-0.459 0.401,-0.488C0.421,-0.517 0.431,-0.551 0.431,-0.588C0.431,-0.625 0.417,-0.658 0.388,-0.686C0.359,-0.714 0.323,-0.728 0.28,-0.728C0.237,-0.728 0.201,-0.713 0.172,-0.683C0.143,-0.652 0.127,-0.609 0.123,-0.553L0.04,-0.553C0.043,-0.632 0.068,-0.694 0.115,-0.741C0.162,-0.787 0.218,-0.81 0.285,-0.81C0.351,-0.81 0.406,-0.789 0.45,-0.746C0.493,-0.703 0.515,-0.65 0.515,-0.588C0.515,-0.543 0.503,-0.5 0.479,-0.461C0.455,-0.422 0.419,-0.376 0.37,-0.324L0.202,-0.143L0.525,-0.143L0.525,-0.06Z" style="fill:rgb(255,213,0);fill-rule:nonzero;"/>
            </g>
            <g transform="matrix(19.7467,-3.17277,3.17277,19.7467,1506.92,1320.01)">
                <path d="M0.273,-0.81C0.352,-0.81 0.414,-0.777 0.46,-0.711C0.506,-0.644 0.529,-0.549 0.529,-0.426C0.529,-0.302 0.506,-0.207 0.459,-0.141C0.412,-0.075 0.35,-0.042 0.272,-0.042C0.193,-0.042 0.132,-0.075 0.09,-0.14C0.047,-0.205 0.025,-0.3 0.025,-0.427C0.025,-0.553 0.047,-0.648 0.09,-0.713C0.132,-0.778 0.194,-0.81 0.273,-0.81ZM0.275,-0.121C0.33,-0.121 0.372,-0.148 0.403,-0.201C0.433,-0.254 0.448,-0.329 0.448,-0.426C0.448,-0.523 0.432,-0.598 0.401,-0.65C0.37,-0.702 0.327,-0.728 0.275,-0.728C0.222,-0.728 0.18,-0.702 0.151,-0.65C0.122,-0.598 0.107,-0.523 0.107,-0.424C0.107,-0.222 0.163,-0.121 0.275,-0.121Z" style="fill:rgb(255,213,0);fill-rule:nonzero;"/>
            </g>
            <g transform="matrix(19.7923,-2.87519,2.87519,19.7923,1517.85,1318.25)">
                <path d="M0.399,-0.472C0.438,-0.453 0.469,-0.426 0.491,-0.392C0.512,-0.358 0.523,-0.321 0.523,-0.281C0.523,-0.216 0.499,-0.16 0.452,-0.113C0.404,-0.066 0.344,-0.042 0.271,-0.042C0.206,-0.042 0.152,-0.061 0.111,-0.099C0.069,-0.136 0.041,-0.192 0.026,-0.266L0.111,-0.266C0.124,-0.219 0.142,-0.184 0.168,-0.161C0.193,-0.137 0.228,-0.126 0.275,-0.126C0.321,-0.126 0.36,-0.14 0.391,-0.17C0.422,-0.199 0.438,-0.235 0.438,-0.279C0.438,-0.323 0.42,-0.358 0.385,-0.384C0.349,-0.41 0.296,-0.424 0.227,-0.425L0.227,-0.505C0.277,-0.505 0.317,-0.516 0.348,-0.537C0.379,-0.558 0.394,-0.585 0.394,-0.617C0.394,-0.648 0.382,-0.675 0.359,-0.696C0.335,-0.716 0.306,-0.727 0.273,-0.727C0.239,-0.727 0.212,-0.717 0.191,-0.699C0.169,-0.68 0.152,-0.651 0.137,-0.612L0.05,-0.612C0.065,-0.676 0.091,-0.725 0.13,-0.759C0.169,-0.793 0.216,-0.81 0.273,-0.81C0.33,-0.81 0.379,-0.791 0.421,-0.754C0.462,-0.717 0.483,-0.671 0.483,-0.618C0.483,-0.557 0.455,-0.508 0.399,-0.472Z" style="fill:rgb(255,213,0);fill-rule:nonzero;"/>
            </g>
            <g transform="matrix(19.8337,-2.57365,2.57365,19.8337,1528.82,1316.66)">
                <path d="M0.399,-0.472C0.438,-0.453 0.469,-0.426 0.491,-0.392C0.512,-0.358 0.523,-0.321 0.523,-0.281C0.523,-0.216 0.499,-0.16 0.452,-0.113C0.404,-0.066 0.344,-0.042 0.271,-0.042C0.206,-0.042 0.152,-0.061 0.111,-0.099C0.069,-0.136 0.041,-0.192 0.026,-0.266L0.111,-0.266C0.124,-0.219 0.142,-0.184 0.168,-0.161C0.193,-0.137 0.228,-0.126 0.275,-0.126C0.321,-0.126 0.36,-0.14 0.391,-0.17C0.422,-0.199 0.438,-0.235 0.438,-0.279C0.438,-0.323 0.42,-0.358 0.385,-0.384C0.349,-0.41 0.296,-0.424 0.227,-0.425L0.227,-0.505C0.277,-0.505 0.317,-0.516 0.348,-0.537C0.379,-0.558 0.394,-0.585 0.394,-0.617C0.394,-0.648 0.382,-0.675 0.359,-0.696C0.335,-0.716 0.306,-0.727 0.273,-0.727C0.239,-0.727 0.212,-0.717 0.191,-0.699C0.169,-0.68 0.152,-0.651 0.137,-0.612L0.05,-0.612C0.065,-0.676 0.091,-0.725 0.13,-0.759C0.169,-0.793 0.216,-0.81 0.273,-0.81C0.33,-0.81 0.379,-0.791 0.421,-0.754C0.462,-0.717 0.483,-0.671 0.483,-0.618C0.483,-0.557 0.455,-0.508 0.399,-0.472Z" style="fill:rgb(255,213,0);fill-rule:nonzero;"/>
            </g>
            <g transform="matrix(19.8825,-2.1647,2.1647,19.8825,1544.78,1314.65)">
                <path d="M0.417,-0.708L0.257,-0.708L0.257,-0.06L0.17,-0.06L0.17,-0.708L0.009,-0.708L0.009,-0.792L0.417,-0.792L0.417,-0.708Z" style="fill:rgb(255,213,0);fill-rule:nonzero;"/>
            </g>
            <g transform="matrix(19.9129,-1.86419,1.86419,19.9129,1553.26,1313.72)">
                <path d="M0.566,-0.06L0.458,-0.06L0.2,-0.394L0.17,-0.394L0.17,-0.06L0.084,-0.06L0.084,-0.792L0.234,-0.792C0.314,-0.792 0.369,-0.789 0.399,-0.782C0.429,-0.775 0.455,-0.763 0.477,-0.746C0.499,-0.729 0.516,-0.708 0.529,-0.682C0.542,-0.655 0.548,-0.626 0.548,-0.594C0.548,-0.533 0.527,-0.485 0.486,-0.449C0.445,-0.412 0.385,-0.394 0.307,-0.394L0.566,-0.06ZM0.17,-0.478L0.287,-0.478C0.346,-0.477 0.389,-0.486 0.417,-0.505C0.445,-0.523 0.459,-0.552 0.459,-0.593C0.459,-0.633 0.445,-0.662 0.418,-0.681C0.391,-0.699 0.348,-0.708 0.29,-0.708L0.17,-0.708L0.17,-0.478Z" style="fill:rgb(255,213,0);fill-rule:nonzero;"/>
            </g>
            <g transform="matrix(19.944,-1.49565,1.49565,19.944,1565.32,1312.57)">
                <path d="M0.726,-0.06L0.635,-0.06L0.522,-0.305L0.22,-0.305L0.108,-0.06L0.013,-0.06L0.359,-0.821L0.385,-0.821L0.726,-0.06ZM0.483,-0.392L0.372,-0.639L0.26,-0.392L0.483,-0.392Z" style="fill:rgb(255,213,0);fill-rule:nonzero;"/>
            </g>
            <g transform="matrix(19.9721,-1.05631,1.05631,19.9721,1580.1,1311.46)">
                <path d="M0.08,-0.792L0.236,-0.792C0.341,-0.792 0.418,-0.784 0.466,-0.769C0.514,-0.753 0.556,-0.729 0.591,-0.696C0.626,-0.663 0.652,-0.622 0.671,-0.575C0.69,-0.528 0.699,-0.473 0.699,-0.411C0.699,-0.349 0.685,-0.291 0.658,-0.236C0.63,-0.181 0.591,-0.137 0.54,-0.107C0.489,-0.076 0.414,-0.06 0.316,-0.06L0.08,-0.06L0.08,-0.792ZM0.163,-0.142L0.239,-0.142C0.324,-0.142 0.385,-0.146 0.424,-0.155C0.463,-0.164 0.496,-0.18 0.525,-0.205C0.554,-0.23 0.576,-0.26 0.591,-0.296C0.606,-0.331 0.613,-0.372 0.613,-0.419C0.613,-0.466 0.604,-0.509 0.587,-0.549C0.569,-0.588 0.544,-0.62 0.511,-0.646C0.478,-0.671 0.44,-0.687 0.396,-0.696C0.352,-0.704 0.289,-0.708 0.207,-0.708L0.163,-0.708L0.163,-0.142Z" style="fill:rgb(255,213,0);fill-rule:nonzero;"/>
            </g>
            <g transform="matrix(19.9886,-0.673712,0.673712,19.9886,1594.96,1310.68)">
                <path d="M0.507,-0.707L0.167,-0.707L0.167,-0.497L0.504,-0.497L0.504,-0.413L0.167,-0.413L0.167,-0.145L0.504,-0.145L0.504,-0.06L0.081,-0.06L0.081,-0.792L0.507,-0.792L0.507,-0.707Z" style="fill:rgb(255,213,0);fill-rule:nonzero;"/>
            </g>
            <g transform="matrix(19.9985,-0.244448,0.244448,19.9985,1610.64,1310.21)">
                <path d="M0.362,-0.631C0.335,-0.667 0.313,-0.691 0.294,-0.704C0.275,-0.716 0.254,-0.722 0.229,-0.722C0.204,-0.722 0.183,-0.714 0.166,-0.698C0.149,-0.682 0.14,-0.662 0.14,-0.637C0.14,-0.612 0.148,-0.59 0.164,-0.571C0.18,-0.552 0.217,-0.522 0.275,-0.48C0.332,-0.437 0.374,-0.397 0.401,-0.36C0.428,-0.323 0.441,-0.283 0.441,-0.242C0.441,-0.188 0.42,-0.141 0.379,-0.102C0.337,-0.062 0.288,-0.042 0.233,-0.042C0.136,-0.042 0.059,-0.096 0.004,-0.205L0.077,-0.247C0.12,-0.166 0.169,-0.126 0.223,-0.126C0.258,-0.126 0.287,-0.137 0.312,-0.159C0.337,-0.181 0.349,-0.207 0.349,-0.236C0.349,-0.265 0.339,-0.293 0.318,-0.32C0.297,-0.346 0.262,-0.378 0.211,-0.417C0.16,-0.455 0.126,-0.484 0.107,-0.504C0.088,-0.524 0.074,-0.545 0.065,-0.568C0.056,-0.591 0.052,-0.613 0.052,-0.636C0.052,-0.685 0.069,-0.726 0.103,-0.76C0.136,-0.793 0.18,-0.81 0.233,-0.81C0.274,-0.81 0.31,-0.8 0.341,-0.779C0.372,-0.757 0.402,-0.726 0.431,-0.685L0.362,-0.631Z" style="fill:rgb(255,213,0);fill-rule:nonzero;"/>
            </g>
            <g transform="matrix(19.9994,0.157334,-0.157334,19.9994,1620.62,1310.07)">
                <path d="M0.726,-0.06L0.635,-0.06L0.522,-0.305L0.22,-0.305L0.108,-0.06L0.013,-0.06L0.359,-0.821L0.385,-0.821L0.726,-0.06ZM0.483,-0.392L0.372,-0.639L0.26,-0.392L0.483,-0.392Z" style="fill:rgb(255,213,0);fill-rule:nonzero;"/>
            </g>
            <g transform="matrix(19.9922,0.557176,-0.557176,19.9922,1635.44,1310.21)">
                <path d="M0.454,-0.412L0.166,-0.412L0.166,-0.06L0.08,-0.06L0.08,-0.792L0.454,-0.792L0.454,-0.707L0.166,-0.707L0.166,-0.497L0.454,-0.497L0.454,-0.412Z" style="fill:rgb(255,213,0);fill-rule:nonzero;"/>
            </g>
            <g transform="matrix(19.9811,0.869761,-0.869761,19.9811,1645.11,1310.46)">
                <path d="M0.507,-0.707L0.167,-0.707L0.167,-0.497L0.504,-0.497L0.504,-0.413L0.167,-0.413L0.167,-0.145L0.504,-0.145L0.504,-0.06L0.081,-0.06L0.081,-0.792L0.507,-0.792L0.507,-0.707Z" style="fill:rgb(255,213,0);fill-rule:nonzero;"/>
            </g>
            <g transform="matrix(19.9467,1.45868,-1.45868,19.9467,1660.81,1311.15)">
                <path d="M0.926,-0.313C0.875,-0.316 0.815,-0.319 0.746,-0.321C0.677,-0.322 0.595,-0.323 0.499,-0.323C0.403,-0.323 0.321,-0.322 0.253,-0.321C0.184,-0.319 0.124,-0.316 0.073,-0.313L0.073,-0.427C0.125,-0.424 0.185,-0.421 0.253,-0.42C0.321,-0.418 0.403,-0.417 0.499,-0.417C0.595,-0.417 0.677,-0.418 0.746,-0.42C0.815,-0.421 0.875,-0.424 0.926,-0.427L0.926,-0.313Z" style="fill:rgb(255,213,0);fill-rule:nonzero;"/>
            </g>
            <g transform="matrix(19.8965,2.03215,-2.03215,19.8965,1680.76,1312.61)">
                <path d="M0.361,-0.631C0.305,-0.63 0.257,-0.629 0.217,-0.627C0.177,-0.625 0.14,-0.622 0.107,-0.619L0.107,-0.718C0.122,-0.717 0.139,-0.716 0.157,-0.715C0.174,-0.713 0.197,-0.713 0.225,-0.712C0.253,-0.711 0.288,-0.711 0.331,-0.711L0.493,-0.711C0.6,-0.711 0.692,-0.712 0.768,-0.713C0.844,-0.714 0.898,-0.716 0.93,-0.719L0.93,-0.619C0.894,-0.623 0.854,-0.626 0.809,-0.628C0.764,-0.63 0.71,-0.631 0.646,-0.631L0.457,-0.631C0.457,-0.605 0.457,-0.579 0.456,-0.554C0.455,-0.528 0.454,-0.502 0.451,-0.475L0.673,-0.475C0.688,-0.475 0.703,-0.475 0.718,-0.476C0.732,-0.477 0.747,-0.478 0.76,-0.479C0.773,-0.48 0.786,-0.481 0.797,-0.482C0.808,-0.483 0.816,-0.484 0.822,-0.485C0.821,-0.481 0.82,-0.476 0.819,-0.471C0.818,-0.466 0.818,-0.459 0.817,-0.452C0.816,-0.445 0.815,-0.436 0.814,-0.425C0.813,-0.413 0.813,-0.4 0.812,-0.384L0.795,-0.134C0.792,-0.097 0.788,-0.068 0.783,-0.045C0.777,-0.022 0.766,-0.004 0.751,0.01C0.736,0.023 0.714,0.033 0.687,0.04C0.66,0.046 0.623,0.051 0.577,0.055C0.576,0.047 0.574,0.039 0.572,0.032C0.57,0.024 0.567,0.016 0.563,0.007C0.559,-0.002 0.554,-0.011 0.548,-0.021C0.541,-0.03 0.533,-0.041 0.524,-0.054C0.565,-0.051 0.597,-0.051 0.621,-0.052C0.644,-0.053 0.662,-0.058 0.675,-0.07C0.687,-0.081 0.695,-0.097 0.7,-0.121C0.704,-0.143 0.708,-0.176 0.711,-0.217L0.724,-0.398L0.444,-0.398C0.437,-0.341 0.428,-0.29 0.417,-0.247C0.405,-0.204 0.388,-0.164 0.366,-0.128C0.344,-0.092 0.316,-0.058 0.281,-0.027C0.246,0.004 0.202,0.037 0.149,0.07C0.141,0.054 0.13,0.039 0.116,0.024C0.102,0.009 0.086,-0.003 0.069,-0.013C0.142,-0.04 0.201,-0.076 0.244,-0.121C0.287,-0.166 0.318,-0.227 0.335,-0.303C0.34,-0.325 0.344,-0.35 0.348,-0.378C0.351,-0.406 0.354,-0.435 0.357,-0.465C0.36,-0.494 0.361,-0.524 0.362,-0.553C0.363,-0.582 0.362,-0.608 0.361,-0.631Z" style="fill:rgb(255,213,0);fill-rule:nonzero;"/>
            </g>
            <g transform="matrix(19.8319,2.58791,-2.58791,19.8319,1700.66,1314.64)">
                <path d="M0.279,0.099L0.184,0.099C0.187,0.069 0.19,0.034 0.192,-0.007C0.194,-0.048 0.195,-0.087 0.195,-0.125L0.195,-0.433C0.18,-0.407 0.165,-0.381 0.149,-0.355C0.132,-0.329 0.113,-0.3 0.092,-0.269C0.087,-0.286 0.081,-0.303 0.072,-0.32C0.063,-0.336 0.053,-0.351 0.041,-0.364C0.054,-0.377 0.067,-0.393 0.082,-0.412C0.097,-0.431 0.112,-0.451 0.127,-0.474C0.141,-0.497 0.156,-0.52 0.169,-0.544C0.182,-0.568 0.194,-0.591 0.204,-0.614C0.218,-0.646 0.231,-0.679 0.242,-0.714C0.253,-0.749 0.262,-0.78 0.268,-0.808C0.301,-0.791 0.334,-0.78 0.369,-0.774C0.38,-0.772 0.386,-0.769 0.387,-0.764C0.387,-0.759 0.381,-0.752 0.368,-0.744C0.365,-0.742 0.361,-0.738 0.356,-0.732C0.351,-0.725 0.345,-0.716 0.338,-0.704C0.331,-0.692 0.322,-0.677 0.313,-0.658C0.303,-0.639 0.292,-0.617 0.279,-0.59L0.279,0.099ZM0.959,-0.109C0.951,-0.073 0.943,-0.045 0.936,-0.024C0.929,-0.003 0.92,0.014 0.91,0.026C0.9,0.037 0.888,0.045 0.873,0.05C0.858,0.055 0.84,0.059 0.818,0.063C0.803,0.066 0.785,0.068 0.762,0.07C0.739,0.072 0.715,0.074 0.689,0.075C0.663,0.076 0.636,0.076 0.609,0.076C0.582,0.075 0.557,0.074 0.534,0.072C0.506,0.069 0.483,0.065 0.465,0.06C0.447,0.054 0.432,0.047 0.422,0.038C0.411,0.028 0.403,0.018 0.399,0.005C0.394,-0.008 0.392,-0.023 0.392,-0.04C0.392,-0.052 0.393,-0.065 0.396,-0.078C0.398,-0.091 0.403,-0.107 0.41,-0.126C0.417,-0.145 0.428,-0.167 0.442,-0.194C0.455,-0.221 0.474,-0.254 0.497,-0.293C0.52,-0.332 0.549,-0.379 0.584,-0.433C0.618,-0.486 0.659,-0.55 0.707,-0.623L0.623,-0.623C0.565,-0.623 0.518,-0.623 0.483,-0.622C0.448,-0.62 0.42,-0.619 0.401,-0.618L0.401,-0.712C0.42,-0.71 0.448,-0.708 0.486,-0.708C0.523,-0.707 0.573,-0.706 0.637,-0.706C0.664,-0.706 0.69,-0.706 0.716,-0.707C0.741,-0.708 0.765,-0.708 0.786,-0.71C0.807,-0.711 0.826,-0.712 0.841,-0.713C0.856,-0.713 0.866,-0.715 0.871,-0.716L0.871,-0.643C0.851,-0.638 0.824,-0.617 0.789,-0.582C0.754,-0.546 0.714,-0.49 0.667,-0.414C0.628,-0.351 0.597,-0.298 0.574,-0.257C0.55,-0.216 0.532,-0.182 0.519,-0.155C0.505,-0.128 0.497,-0.107 0.492,-0.092C0.487,-0.077 0.485,-0.063 0.485,-0.051C0.485,-0.04 0.49,-0.03 0.499,-0.023C0.507,-0.016 0.527,-0.011 0.558,-0.01C0.577,-0.009 0.597,-0.009 0.617,-0.009C0.637,-0.009 0.656,-0.01 0.675,-0.011C0.693,-0.012 0.71,-0.013 0.726,-0.014C0.741,-0.015 0.755,-0.017 0.766,-0.018C0.782,-0.02 0.795,-0.023 0.806,-0.027C0.817,-0.031 0.825,-0.038 0.832,-0.048C0.839,-0.058 0.844,-0.073 0.848,-0.092C0.852,-0.111 0.856,-0.136 0.859,-0.169C0.87,-0.158 0.879,-0.149 0.887,-0.142C0.895,-0.135 0.903,-0.129 0.91,-0.125C0.917,-0.12 0.925,-0.117 0.933,-0.115C0.94,-0.113 0.949,-0.111 0.959,-0.109Z" style="fill:rgb(255,213,0);fill-rule:nonzero;"/>
            </g>
            <g transform="matrix(19.7536,3.12999,-3.12999,19.7536,1720.51,1317.23)">
                <path d="M0.568,-0.402C0.565,-0.397 0.561,-0.385 0.558,-0.364C0.555,-0.343 0.552,-0.317 0.551,-0.287C0.549,-0.236 0.544,-0.192 0.537,-0.155C0.529,-0.117 0.518,-0.083 0.504,-0.052C0.489,-0.021 0.471,0.007 0.449,0.034C0.426,0.06 0.399,0.087 0.367,0.115C0.36,0.106 0.348,0.097 0.332,0.087C0.315,0.076 0.297,0.066 0.277,0.056C0.319,0.03 0.353,0.003 0.38,-0.026C0.406,-0.055 0.426,-0.087 0.441,-0.124C0.456,-0.161 0.465,-0.203 0.468,-0.251C0.471,-0.299 0.471,-0.356 0.467,-0.421C0.473,-0.42 0.48,-0.419 0.489,-0.418C0.497,-0.417 0.505,-0.416 0.515,-0.416C0.524,-0.415 0.532,-0.415 0.541,-0.415L0.562,-0.415C0.569,-0.416 0.573,-0.415 0.574,-0.413C0.574,-0.411 0.572,-0.407 0.568,-0.402ZM0.798,-0.403C0.794,-0.4 0.791,-0.392 0.79,-0.381C0.788,-0.37 0.787,-0.352 0.787,-0.327L0.787,-0.08C0.787,-0.069 0.787,-0.055 0.788,-0.04C0.788,-0.025 0.789,-0.009 0.79,0.008C0.791,0.025 0.791,0.041 0.792,0.058C0.793,0.074 0.794,0.089 0.795,0.103L0.693,0.103C0.694,0.091 0.695,0.077 0.696,0.061C0.697,0.044 0.698,0.028 0.699,0.011C0.7,-0.006 0.7,-0.023 0.701,-0.039C0.702,-0.055 0.702,-0.069 0.702,-0.08L0.702,-0.277C0.702,-0.294 0.702,-0.31 0.701,-0.326C0.7,-0.342 0.7,-0.357 0.699,-0.371C0.698,-0.384 0.697,-0.396 0.696,-0.407C0.695,-0.418 0.694,-0.426 0.693,-0.432C0.709,-0.429 0.726,-0.426 0.744,-0.425C0.761,-0.424 0.778,-0.423 0.793,-0.423C0.802,-0.423 0.808,-0.421 0.81,-0.418C0.811,-0.415 0.807,-0.41 0.798,-0.403ZM0.174,-0.41C0.163,-0.393 0.151,-0.375 0.138,-0.358C0.125,-0.341 0.113,-0.324 0.1,-0.308C0.09,-0.323 0.079,-0.337 0.067,-0.348C0.054,-0.359 0.042,-0.369 0.029,-0.376C0.04,-0.385 0.052,-0.396 0.065,-0.411C0.078,-0.426 0.092,-0.442 0.105,-0.461C0.117,-0.479 0.13,-0.498 0.142,-0.519C0.154,-0.539 0.164,-0.559 0.172,-0.579C0.191,-0.624 0.205,-0.664 0.214,-0.697C0.223,-0.729 0.23,-0.761 0.233,-0.792C0.265,-0.777 0.298,-0.767 0.331,-0.761C0.342,-0.759 0.349,-0.756 0.35,-0.752C0.351,-0.748 0.346,-0.741 0.335,-0.731C0.333,-0.729 0.331,-0.726 0.328,-0.721C0.325,-0.716 0.32,-0.708 0.315,-0.696C0.31,-0.683 0.303,-0.666 0.294,-0.645C0.285,-0.624 0.273,-0.596 0.258,-0.561L0.258,0.106L0.163,0.106C0.166,0.077 0.168,0.043 0.171,0.004C0.173,-0.035 0.174,-0.073 0.174,-0.109L0.174,-0.41ZM0.629,-0.68C0.604,-0.635 0.58,-0.596 0.558,-0.564C0.535,-0.531 0.513,-0.501 0.491,-0.474C0.468,-0.447 0.445,-0.423 0.422,-0.4C0.398,-0.377 0.372,-0.353 0.344,-0.328C0.335,-0.339 0.324,-0.35 0.311,-0.361C0.298,-0.371 0.284,-0.38 0.27,-0.388C0.298,-0.405 0.323,-0.421 0.344,-0.437C0.365,-0.453 0.384,-0.47 0.401,-0.487C0.418,-0.504 0.433,-0.523 0.448,-0.543C0.463,-0.563 0.478,-0.585 0.493,-0.61C0.502,-0.625 0.511,-0.64 0.518,-0.655C0.525,-0.669 0.532,-0.684 0.538,-0.7C0.544,-0.715 0.549,-0.732 0.554,-0.749C0.559,-0.765 0.563,-0.784 0.568,-0.804C0.573,-0.801 0.581,-0.798 0.591,-0.795C0.6,-0.791 0.61,-0.787 0.621,-0.784C0.632,-0.78 0.642,-0.777 0.651,-0.774C0.66,-0.771 0.668,-0.77 0.673,-0.769C0.68,-0.768 0.684,-0.765 0.684,-0.76C0.684,-0.755 0.678,-0.747 0.666,-0.737C0.689,-0.67 0.725,-0.614 0.774,-0.569C0.823,-0.523 0.888,-0.487 0.971,-0.46C0.957,-0.444 0.945,-0.428 0.934,-0.411C0.923,-0.394 0.915,-0.378 0.91,-0.363C0.876,-0.381 0.845,-0.4 0.817,-0.421C0.788,-0.442 0.763,-0.464 0.74,-0.49C0.716,-0.515 0.696,-0.543 0.678,-0.574C0.659,-0.605 0.643,-0.641 0.629,-0.68Z" style="fill:rgb(255,213,0);fill-rule:nonzero;"/>
            </g>
            <g transform="matrix(19.6617,3.66285,-3.66285,19.6617,1740.27,1320.36)">
                <path d="M0.249,0.108L0.158,0.108C0.161,0.079 0.163,0.045 0.166,0.006C0.168,-0.033 0.169,-0.071 0.169,-0.107L0.169,-0.469C0.157,-0.448 0.145,-0.428 0.134,-0.409C0.122,-0.39 0.111,-0.373 0.1,-0.357C0.092,-0.37 0.083,-0.381 0.073,-0.391C0.063,-0.401 0.051,-0.411 0.036,-0.42C0.059,-0.447 0.083,-0.479 0.106,-0.514C0.129,-0.549 0.147,-0.585 0.162,-0.621C0.175,-0.652 0.188,-0.684 0.199,-0.717C0.21,-0.749 0.22,-0.778 0.227,-0.805C0.242,-0.797 0.258,-0.79 0.275,-0.783C0.292,-0.776 0.305,-0.771 0.314,-0.769C0.324,-0.767 0.329,-0.764 0.33,-0.759C0.33,-0.754 0.325,-0.749 0.316,-0.744C0.311,-0.741 0.305,-0.734 0.298,-0.723C0.291,-0.711 0.281,-0.691 0.269,-0.663L0.249,-0.619L0.249,0.108ZM0.464,-0.142L0.775,-0.142L0.775,-0.219L0.464,-0.219L0.464,-0.142ZM0.775,-0.483L0.464,-0.483L0.464,-0.41L0.775,-0.41L0.775,-0.483ZM0.464,-0.275L0.775,-0.275L0.775,-0.353L0.464,-0.353L0.464,-0.275ZM0.388,-0.445C0.388,-0.45 0.388,-0.458 0.388,-0.468C0.387,-0.477 0.387,-0.488 0.387,-0.499C0.386,-0.509 0.386,-0.52 0.385,-0.53C0.384,-0.54 0.384,-0.548 0.383,-0.554C0.402,-0.553 0.425,-0.551 0.453,-0.55C0.48,-0.549 0.514,-0.548 0.555,-0.547C0.558,-0.562 0.56,-0.578 0.561,-0.594C0.562,-0.61 0.564,-0.627 0.565,-0.644C0.516,-0.643 0.472,-0.643 0.435,-0.642C0.397,-0.641 0.363,-0.64 0.333,-0.638L0.333,-0.716C0.364,-0.713 0.398,-0.712 0.436,-0.711C0.474,-0.709 0.518,-0.709 0.569,-0.708C0.57,-0.728 0.57,-0.747 0.57,-0.764C0.57,-0.781 0.569,-0.795 0.568,-0.807C0.575,-0.806 0.583,-0.805 0.593,-0.804C0.603,-0.803 0.613,-0.802 0.624,-0.801C0.634,-0.8 0.644,-0.8 0.653,-0.8C0.662,-0.799 0.67,-0.799 0.676,-0.8C0.681,-0.801 0.685,-0.8 0.686,-0.797C0.687,-0.794 0.684,-0.79 0.679,-0.785C0.673,-0.78 0.668,-0.772 0.664,-0.762C0.66,-0.751 0.656,-0.733 0.652,-0.708C0.717,-0.708 0.773,-0.708 0.822,-0.71C0.871,-0.711 0.913,-0.713 0.948,-0.716L0.948,-0.638C0.912,-0.641 0.869,-0.643 0.82,-0.644C0.77,-0.645 0.711,-0.645 0.644,-0.644C0.643,-0.631 0.641,-0.616 0.64,-0.6C0.638,-0.584 0.636,-0.566 0.634,-0.547C0.689,-0.547 0.734,-0.548 0.769,-0.549C0.804,-0.55 0.833,-0.551 0.856,-0.554C0.855,-0.549 0.855,-0.542 0.854,-0.533C0.853,-0.524 0.853,-0.514 0.853,-0.504C0.852,-0.493 0.852,-0.483 0.852,-0.473L0.852,-0.006C0.872,-0.007 0.891,-0.008 0.909,-0.009C0.927,-0.01 0.945,-0.011 0.963,-0.013L0.963,0.067C0.953,0.066 0.941,0.066 0.927,0.065C0.913,0.064 0.894,0.063 0.869,0.062C0.844,0.061 0.813,0.061 0.774,0.061C0.735,0.06 0.687,0.06 0.628,0.06C0.569,0.06 0.521,0.06 0.484,0.061C0.446,0.061 0.415,0.061 0.391,0.062C0.366,0.062 0.347,0.063 0.333,0.064C0.318,0.065 0.305,0.065 0.293,0.066L0.293,-0.013C0.322,-0.01 0.353,-0.008 0.388,-0.007L0.388,-0.445ZM0.775,-0.085L0.464,-0.085L0.464,-0.006L0.775,-0.006L0.775,-0.085Z" style="fill:rgb(255,213,0);fill-rule:nonzero;"/>
            </g>
            <g transform="matrix(19.5553,4.19411,-4.19411,19.5553,1759.91,1324.02)">
                <path d="M0.561,-0.639C0.554,-0.662 0.546,-0.686 0.537,-0.709C0.528,-0.732 0.519,-0.753 0.51,-0.772L0.588,-0.796C0.598,-0.776 0.608,-0.755 0.617,-0.732C0.626,-0.709 0.635,-0.688 0.642,-0.668L0.561,-0.639ZM0.322,-0.481L0.185,-0.481L0.185,-0.345L0.322,-0.345L0.322,-0.481ZM0.322,-0.277L0.185,-0.277L0.185,-0.117C0.209,-0.121 0.233,-0.125 0.256,-0.13C0.278,-0.134 0.301,-0.138 0.322,-0.143L0.322,-0.277ZM0.185,-0.69L0.185,-0.548L0.322,-0.548L0.322,-0.69L0.185,-0.69ZM0.11,-0.688C0.094,-0.687 0.074,-0.685 0.05,-0.682L0.05,-0.763C0.064,-0.762 0.077,-0.761 0.09,-0.76C0.102,-0.759 0.116,-0.758 0.131,-0.757C0.146,-0.756 0.164,-0.756 0.184,-0.756L0.256,-0.756C0.284,-0.756 0.308,-0.756 0.329,-0.757C0.349,-0.757 0.367,-0.757 0.382,-0.758C0.397,-0.758 0.41,-0.759 0.421,-0.76C0.432,-0.761 0.444,-0.762 0.455,-0.763L0.455,-0.682C0.444,-0.683 0.434,-0.684 0.425,-0.685C0.415,-0.686 0.406,-0.687 0.397,-0.688L0.397,-0.161C0.412,-0.165 0.427,-0.169 0.441,-0.174C0.454,-0.178 0.466,-0.182 0.477,-0.186C0.472,-0.173 0.468,-0.16 0.467,-0.149C0.465,-0.137 0.465,-0.122 0.468,-0.105C0.459,-0.104 0.448,-0.102 0.437,-0.1C0.425,-0.098 0.412,-0.095 0.397,-0.092C0.397,-0.056 0.398,-0.021 0.399,0.013C0.4,0.046 0.402,0.073 0.405,0.093L0.313,0.093C0.315,0.074 0.317,0.05 0.319,0.019C0.32,-0.012 0.321,-0.043 0.322,-0.075C0.271,-0.064 0.226,-0.052 0.187,-0.04C0.148,-0.028 0.11,-0.015 0.071,-0C0.067,-0.019 0.063,-0.036 0.059,-0.051C0.054,-0.065 0.048,-0.08 0.041,-0.097L0.11,-0.106L0.11,-0.688ZM0.681,-0.21C0.674,-0.179 0.665,-0.15 0.655,-0.124C0.644,-0.097 0.631,-0.072 0.616,-0.048C0.601,-0.024 0.583,-0 0.562,0.023C0.541,0.046 0.517,0.071 0.49,0.097C0.481,0.086 0.471,0.076 0.461,0.068C0.45,0.06 0.437,0.051 0.42,0.042C0.451,0.021 0.478,-0.001 0.501,-0.024C0.524,-0.047 0.544,-0.071 0.56,-0.098C0.576,-0.124 0.589,-0.153 0.599,-0.184C0.609,-0.215 0.616,-0.251 0.62,-0.29C0.601,-0.29 0.584,-0.29 0.57,-0.289C0.555,-0.288 0.54,-0.288 0.527,-0.287C0.513,-0.286 0.5,-0.285 0.487,-0.284C0.474,-0.283 0.46,-0.281 0.446,-0.28L0.446,-0.365C0.461,-0.364 0.475,-0.363 0.488,-0.362C0.501,-0.361 0.515,-0.36 0.529,-0.359C0.543,-0.358 0.558,-0.358 0.574,-0.357C0.589,-0.356 0.607,-0.356 0.626,-0.356C0.627,-0.382 0.628,-0.41 0.63,-0.44C0.631,-0.469 0.631,-0.501 0.63,-0.535C0.61,-0.535 0.592,-0.535 0.578,-0.534C0.563,-0.533 0.549,-0.533 0.536,-0.532C0.523,-0.531 0.511,-0.531 0.5,-0.53C0.488,-0.529 0.475,-0.527 0.462,-0.526L0.462,-0.61C0.495,-0.607 0.531,-0.604 0.569,-0.603C0.606,-0.602 0.648,-0.601 0.694,-0.601C0.715,-0.645 0.732,-0.683 0.745,-0.716C0.757,-0.749 0.767,-0.781 0.774,-0.812C0.806,-0.795 0.834,-0.785 0.858,-0.782C0.865,-0.781 0.869,-0.778 0.869,-0.774C0.868,-0.77 0.863,-0.763 0.854,-0.754C0.851,-0.751 0.846,-0.744 0.84,-0.735C0.833,-0.726 0.826,-0.714 0.817,-0.701C0.808,-0.687 0.799,-0.671 0.79,-0.654C0.78,-0.637 0.77,-0.619 0.76,-0.601C0.793,-0.602 0.821,-0.603 0.844,-0.604C0.866,-0.605 0.889,-0.607 0.912,-0.61L0.912,-0.526C0.897,-0.527 0.883,-0.529 0.87,-0.53C0.856,-0.531 0.841,-0.532 0.826,-0.533C0.811,-0.534 0.794,-0.534 0.775,-0.535C0.755,-0.535 0.734,-0.535 0.709,-0.535C0.708,-0.496 0.708,-0.463 0.707,-0.434C0.705,-0.405 0.704,-0.379 0.702,-0.356C0.733,-0.356 0.759,-0.356 0.782,-0.357C0.804,-0.357 0.824,-0.357 0.842,-0.358C0.859,-0.359 0.876,-0.36 0.891,-0.361C0.906,-0.362 0.923,-0.364 0.94,-0.365L0.94,-0.28C0.923,-0.282 0.907,-0.284 0.892,-0.285C0.877,-0.286 0.86,-0.287 0.843,-0.288C0.825,-0.289 0.805,-0.289 0.783,-0.29C0.761,-0.29 0.735,-0.29 0.704,-0.29C0.717,-0.247 0.732,-0.21 0.749,-0.179C0.765,-0.147 0.783,-0.12 0.804,-0.097C0.825,-0.074 0.848,-0.054 0.873,-0.039C0.898,-0.024 0.927,-0.011 0.959,-0.001C0.944,0.012 0.932,0.026 0.924,0.04C0.915,0.054 0.907,0.071 0.899,0.09C0.866,0.067 0.838,0.044 0.814,0.022C0.789,-0.001 0.768,-0.024 0.751,-0.048C0.733,-0.072 0.718,-0.097 0.707,-0.124C0.696,-0.15 0.687,-0.179 0.681,-0.21Z" style="fill:rgb(255,213,0);fill-rule:nonzero;"/>
            </g>
            <g transform="matrix(19.4311,4.73628,-4.73628,19.4311,1779.49,1328.22)">
                <path d="M0.345,-0.58L0.345,-0.675L0.206,-0.675L0.206,-0.58L0.345,-0.58ZM0.787,-0.615L0.787,-0.691L0.583,-0.691L0.583,-0.615L0.787,-0.615ZM0.751,-0.006L0.751,-0.169L0.618,-0.169L0.618,-0.006L0.751,-0.006ZM0.543,-0.006L0.543,-0.169L0.432,-0.169L0.432,-0.006L0.543,-0.006ZM0.357,-0.006L0.357,-0.169L0.241,-0.169L0.241,-0.006L0.357,-0.006ZM0.826,-0.006C0.844,-0.007 0.863,-0.008 0.883,-0.009C0.903,-0.01 0.924,-0.012 0.945,-0.015L0.945,0.072C0.927,0.071 0.909,0.069 0.891,0.068C0.872,0.067 0.848,0.066 0.817,0.065C0.786,0.064 0.745,0.063 0.696,0.063C0.646,0.062 0.581,0.062 0.5,0.062C0.419,0.062 0.354,0.062 0.304,0.063C0.254,0.063 0.214,0.064 0.183,0.065C0.152,0.066 0.127,0.067 0.109,0.068C0.09,0.069 0.072,0.071 0.054,0.072L0.054,-0.015C0.077,-0.013 0.098,-0.012 0.116,-0.011C0.134,-0.01 0.151,-0.008 0.166,-0.007L0.166,-0.164C0.166,-0.175 0.166,-0.187 0.166,-0.201C0.165,-0.214 0.164,-0.227 0.162,-0.238C0.18,-0.237 0.199,-0.237 0.22,-0.237C0.24,-0.236 0.263,-0.236 0.289,-0.236C0.315,-0.235 0.345,-0.235 0.379,-0.235L0.612,-0.235C0.645,-0.235 0.675,-0.235 0.701,-0.236C0.726,-0.236 0.749,-0.236 0.77,-0.237C0.79,-0.237 0.809,-0.237 0.827,-0.238C0.826,-0.227 0.826,-0.214 0.826,-0.201L0.826,-0.006ZM0.206,-0.362L0.206,-0.29L0.125,-0.29C0.127,-0.32 0.128,-0.351 0.128,-0.383L0.128,-0.712C0.128,-0.724 0.128,-0.735 0.127,-0.744C0.138,-0.743 0.156,-0.741 0.179,-0.741C0.202,-0.74 0.235,-0.739 0.276,-0.739C0.317,-0.739 0.35,-0.74 0.373,-0.741C0.396,-0.741 0.414,-0.743 0.425,-0.744C0.424,-0.735 0.423,-0.724 0.423,-0.712C0.422,-0.699 0.422,-0.686 0.422,-0.674L0.422,-0.412C0.422,-0.395 0.423,-0.38 0.424,-0.365C0.424,-0.349 0.426,-0.334 0.427,-0.319L0.345,-0.319L0.345,-0.362L0.206,-0.362ZM0.345,-0.427L0.345,-0.518L0.206,-0.518L0.206,-0.427L0.345,-0.427ZM0.572,-0.412C0.566,-0.377 0.556,-0.345 0.541,-0.318C0.526,-0.291 0.505,-0.264 0.477,-0.239C0.464,-0.247 0.451,-0.254 0.439,-0.259C0.426,-0.264 0.411,-0.27 0.393,-0.276C0.416,-0.292 0.435,-0.308 0.45,-0.325C0.465,-0.342 0.476,-0.36 0.485,-0.381C0.493,-0.402 0.499,-0.425 0.502,-0.452C0.505,-0.478 0.506,-0.508 0.506,-0.543L0.506,-0.67C0.506,-0.691 0.506,-0.709 0.505,-0.723C0.504,-0.737 0.503,-0.749 0.501,-0.758C0.53,-0.757 0.558,-0.756 0.586,-0.756C0.613,-0.755 0.646,-0.755 0.685,-0.755L0.74,-0.755C0.756,-0.755 0.771,-0.755 0.786,-0.756C0.801,-0.756 0.815,-0.756 0.829,-0.757C0.842,-0.757 0.856,-0.757 0.871,-0.758C0.868,-0.749 0.867,-0.737 0.866,-0.723C0.865,-0.709 0.865,-0.691 0.865,-0.67L0.865,-0.337C0.865,-0.329 0.864,-0.321 0.861,-0.314C0.858,-0.306 0.852,-0.299 0.841,-0.293C0.83,-0.287 0.815,-0.282 0.795,-0.277C0.774,-0.272 0.746,-0.268 0.71,-0.265C0.713,-0.278 0.711,-0.292 0.704,-0.309C0.697,-0.326 0.686,-0.34 0.672,-0.352C0.696,-0.348 0.716,-0.346 0.731,-0.346C0.745,-0.345 0.757,-0.346 0.766,-0.349C0.774,-0.352 0.78,-0.356 0.783,-0.361C0.786,-0.366 0.787,-0.372 0.787,-0.379L0.787,-0.412L0.572,-0.412ZM0.787,-0.476L0.787,-0.551L0.583,-0.551C0.583,-0.524 0.582,-0.499 0.58,-0.476L0.787,-0.476Z" style="fill:rgb(255,213,0);fill-rule:nonzero;"/>
            </g>
        </g>
        <g transform="matrix(0.832871,0,0,0.832871,-1170.44,-1044.3)">
            <g transform="matrix(15.8124,-2.4432,2.4432,15.8124,1513.94,1318.88)">
                <path d="M0.32,-0.533L0.212,-0.533L0.212,-0.151C0.212,-0.137 0.214,-0.129 0.218,-0.126C0.222,-0.123 0.232,-0.121 0.248,-0.121L0.296,-0.121L0.296,-0.05C0.264,-0.045 0.24,-0.042 0.223,-0.042C0.191,-0.042 0.167,-0.05 0.152,-0.066C0.137,-0.081 0.129,-0.106 0.129,-0.14L0.129,-0.533L0.035,-0.533L0.035,-0.605L0.129,-0.605L0.129,-0.81L0.212,-0.81L0.212,-0.605L0.32,-0.605L0.32,-0.533Z" style="fill:white;fill-rule:nonzero;"/>
            </g>
            <g transform="matrix(15.8295,-2.32984,2.32984,15.8295,1519.3,1318.05)">
                <path d="M0.299,-0.597L0.256,-0.527C0.245,-0.533 0.234,-0.536 0.223,-0.536C0.202,-0.536 0.184,-0.526 0.167,-0.506C0.15,-0.485 0.138,-0.459 0.13,-0.426C0.121,-0.393 0.117,-0.333 0.117,-0.247L0.117,-0.06L0.033,-0.06L0.033,-0.605L0.117,-0.605L0.117,-0.546C0.134,-0.571 0.151,-0.589 0.168,-0.601C0.185,-0.613 0.204,-0.619 0.226,-0.619C0.247,-0.619 0.272,-0.612 0.299,-0.597Z" style="fill:white;fill-rule:nonzero;"/>
            </g>
            <g transform="matrix(15.8524,-2.16841,2.16841,15.8524,1524.08,1317.33)">
                <path d="M0.612,-0.06L0.531,-0.06L0.531,-0.14C0.472,-0.075 0.403,-0.042 0.326,-0.042C0.249,-0.042 0.183,-0.071 0.128,-0.128C0.073,-0.185 0.045,-0.253 0.045,-0.332C0.045,-0.411 0.073,-0.478 0.128,-0.535C0.183,-0.591 0.251,-0.619 0.331,-0.619C0.41,-0.619 0.477,-0.587 0.531,-0.522L0.531,-0.605L0.612,-0.605L0.612,-0.06ZM0.332,-0.119C0.387,-0.119 0.435,-0.139 0.475,-0.179C0.515,-0.219 0.535,-0.269 0.535,-0.329C0.535,-0.388 0.515,-0.438 0.476,-0.479C0.437,-0.519 0.389,-0.539 0.332,-0.539C0.275,-0.539 0.226,-0.518 0.187,-0.477C0.148,-0.435 0.128,-0.386 0.128,-0.329C0.128,-0.272 0.148,-0.223 0.188,-0.182C0.228,-0.14 0.276,-0.119 0.332,-0.119Z" style="fill:white;fill-rule:nonzero;"/>
            </g>
            <g transform="matrix(15.8832,-1.92955,1.92955,15.8832,1534.89,1315.85)">
                <path d="M0.613,-0.06L0.532,-0.06L0.532,-0.14C0.473,-0.075 0.404,-0.042 0.327,-0.042C0.249,-0.042 0.183,-0.07 0.128,-0.127C0.073,-0.184 0.046,-0.252 0.046,-0.331C0.046,-0.41 0.074,-0.478 0.129,-0.535C0.184,-0.591 0.252,-0.619 0.332,-0.619C0.411,-0.619 0.478,-0.587 0.532,-0.522L0.532,-0.81L0.613,-0.81L0.613,-0.06ZM0.333,-0.119C0.386,-0.119 0.433,-0.139 0.474,-0.178C0.515,-0.217 0.536,-0.267 0.536,-0.328C0.536,-0.388 0.517,-0.438 0.479,-0.479C0.44,-0.519 0.392,-0.539 0.334,-0.539C0.275,-0.539 0.227,-0.518 0.188,-0.477C0.149,-0.435 0.129,-0.386 0.129,-0.33C0.129,-0.273 0.149,-0.224 0.189,-0.182C0.229,-0.14 0.277,-0.119 0.333,-0.119Z" style="fill:white;fill-rule:nonzero;"/>
            </g>
            <g transform="matrix(15.9107,-1.68845,1.68845,15.9107,1545.78,1314.53)">
                <path d="M0.606,-0.318L0.128,-0.318C0.131,-0.258 0.152,-0.21 0.189,-0.174C0.226,-0.137 0.27,-0.119 0.321,-0.119C0.408,-0.119 0.475,-0.162 0.521,-0.248L0.591,-0.212C0.56,-0.154 0.523,-0.111 0.48,-0.084C0.437,-0.056 0.386,-0.042 0.327,-0.042C0.245,-0.042 0.177,-0.07 0.124,-0.127C0.071,-0.183 0.044,-0.251 0.044,-0.33C0.044,-0.409 0.071,-0.477 0.125,-0.534C0.178,-0.591 0.245,-0.619 0.324,-0.619C0.403,-0.619 0.47,-0.592 0.523,-0.539C0.576,-0.485 0.604,-0.411 0.606,-0.318ZM0.514,-0.391C0.504,-0.438 0.481,-0.474 0.446,-0.5C0.411,-0.526 0.37,-0.539 0.324,-0.539C0.231,-0.539 0.169,-0.49 0.138,-0.391L0.514,-0.391Z" style="fill:white;fill-rule:nonzero;"/>
            </g>
            <g transform="matrix(15.929,-1.50595,1.50595,15.929,1556.13,1313.45)">
                <path d="M0.353,-0.541L0.3,-0.486C0.261,-0.523 0.225,-0.541 0.192,-0.541C0.171,-0.541 0.154,-0.535 0.14,-0.522C0.126,-0.509 0.119,-0.493 0.119,-0.474C0.119,-0.455 0.127,-0.438 0.143,-0.424C0.158,-0.409 0.186,-0.392 0.226,-0.371C0.266,-0.349 0.297,-0.326 0.319,-0.301C0.34,-0.276 0.351,-0.245 0.351,-0.208C0.351,-0.161 0.335,-0.122 0.303,-0.09C0.27,-0.058 0.23,-0.042 0.183,-0.042C0.117,-0.042 0.062,-0.07 0.018,-0.126L0.07,-0.184C0.106,-0.142 0.143,-0.121 0.18,-0.121C0.205,-0.121 0.227,-0.129 0.245,-0.146C0.263,-0.163 0.272,-0.182 0.272,-0.205C0.272,-0.227 0.264,-0.246 0.248,-0.261C0.231,-0.276 0.203,-0.293 0.164,-0.313C0.124,-0.333 0.094,-0.355 0.074,-0.38C0.053,-0.404 0.043,-0.436 0.043,-0.476C0.043,-0.515 0.058,-0.549 0.087,-0.577C0.116,-0.605 0.154,-0.619 0.202,-0.619C0.249,-0.619 0.3,-0.593 0.353,-0.541Z" style="fill:white;fill-rule:nonzero;"/>
            </g>
            <g transform="matrix(15.9459,-1.31465,1.31465,15.9459,1562.29,1312.85)">
                <path d="M0.612,-0.06L0.531,-0.06L0.531,-0.14C0.472,-0.075 0.403,-0.042 0.326,-0.042C0.249,-0.042 0.183,-0.071 0.128,-0.128C0.073,-0.185 0.045,-0.253 0.045,-0.332C0.045,-0.411 0.073,-0.478 0.128,-0.535C0.183,-0.591 0.251,-0.619 0.331,-0.619C0.41,-0.619 0.477,-0.587 0.531,-0.522L0.531,-0.605L0.612,-0.605L0.612,-0.06ZM0.332,-0.119C0.387,-0.119 0.435,-0.139 0.475,-0.179C0.515,-0.219 0.535,-0.269 0.535,-0.329C0.535,-0.388 0.515,-0.438 0.476,-0.479C0.437,-0.519 0.389,-0.539 0.332,-0.539C0.275,-0.539 0.226,-0.518 0.187,-0.477C0.148,-0.435 0.128,-0.386 0.128,-0.329C0.128,-0.272 0.148,-0.223 0.188,-0.182C0.228,-0.14 0.276,-0.119 0.332,-0.119Z" style="fill:white;fill-rule:nonzero;"/>
            </g>
            <g transform="matrix(15.9605,-1.12372,1.12372,15.9605,1573.2,1311.97)">
                <path d="M0.302,-0.712C0.27,-0.725 0.245,-0.732 0.227,-0.732C0.209,-0.732 0.197,-0.726 0.192,-0.715C0.187,-0.703 0.184,-0.683 0.184,-0.656L0.184,-0.605L0.295,-0.605L0.295,-0.533L0.184,-0.533L0.184,-0.06L0.101,-0.06L0.101,-0.533L0.032,-0.533L0.032,-0.605L0.101,-0.605L0.101,-0.667C0.101,-0.716 0.11,-0.752 0.129,-0.776C0.147,-0.799 0.176,-0.81 0.215,-0.81C0.236,-0.81 0.265,-0.805 0.302,-0.795L0.302,-0.712Z" style="fill:white;fill-rule:nonzero;"/>
            </g>
            <g transform="matrix(15.9718,-0.949313,0.949313,15.9718,1578.21,1311.6)">
                <path d="M0.606,-0.318L0.128,-0.318C0.131,-0.258 0.152,-0.21 0.189,-0.174C0.226,-0.137 0.27,-0.119 0.321,-0.119C0.408,-0.119 0.475,-0.162 0.521,-0.248L0.591,-0.212C0.56,-0.154 0.523,-0.111 0.48,-0.084C0.437,-0.056 0.386,-0.042 0.327,-0.042C0.245,-0.042 0.177,-0.07 0.124,-0.127C0.071,-0.183 0.044,-0.251 0.044,-0.33C0.044,-0.409 0.071,-0.477 0.125,-0.534C0.178,-0.591 0.245,-0.619 0.324,-0.619C0.403,-0.619 0.47,-0.592 0.523,-0.539C0.576,-0.485 0.604,-0.411 0.606,-0.318ZM0.514,-0.391C0.504,-0.438 0.481,-0.474 0.446,-0.5C0.411,-0.526 0.37,-0.539 0.324,-0.539C0.231,-0.539 0.169,-0.49 0.138,-0.391L0.514,-0.391Z" style="fill:white;fill-rule:nonzero;"/>
            </g>
            <g transform="matrix(15.9814,-0.771687,0.771687,15.9814,1588.59,1311)">
                <path d="M0.151,-0.231C0.17,-0.231 0.186,-0.225 0.199,-0.212C0.212,-0.199 0.218,-0.183 0.218,-0.164C0.218,-0.145 0.212,-0.129 0.199,-0.116C0.186,-0.102 0.17,-0.096 0.152,-0.096C0.133,-0.096 0.117,-0.103 0.104,-0.116C0.091,-0.129 0.084,-0.145 0.084,-0.164C0.084,-0.183 0.091,-0.199 0.104,-0.212C0.117,-0.225 0.133,-0.231 0.151,-0.231Z" style="fill:white;fill-rule:nonzero;"/>
            </g>
            <g transform="matrix(15.9874,-0.633619,0.633619,15.9874,1593.01,1310.78)">
                <path d="M0.481,-0.06L0.38,-0.06L0.239,-0.276L0.099,-0.06L0,-0.06L0.189,-0.347L0.019,-0.605L0.119,-0.605L0.239,-0.419L0.358,-0.605L0.458,-0.605L0.289,-0.348L0.481,-0.06Z" style="fill:white;fill-rule:nonzero;"/>
            </g>
            <g transform="matrix(15.992,-0.504552,0.504552,15.992,1600.68,1310.49)">
                <path d="M0.1,-0.81C0.118,-0.81 0.133,-0.804 0.146,-0.792C0.158,-0.779 0.164,-0.764 0.164,-0.747C0.164,-0.729 0.158,-0.714 0.146,-0.702C0.133,-0.689 0.118,-0.683 0.101,-0.683C0.083,-0.683 0.068,-0.689 0.056,-0.702C0.043,-0.715 0.037,-0.729 0.037,-0.747C0.037,-0.764 0.043,-0.778 0.056,-0.791C0.068,-0.804 0.083,-0.81 0.1,-0.81ZM0.142,-0.06L0.059,-0.06L0.059,-0.605L0.142,-0.605L0.142,-0.06Z" style="fill:white;fill-rule:nonzero;"/>
            </g>
            <g transform="matrix(15.9962,-0.347799,0.347799,15.9962,1603.89,1310.37)">
                <path d="M0.547,-0.06L0.465,-0.06L0.465,-0.32C0.465,-0.38 0.462,-0.421 0.457,-0.443C0.451,-0.464 0.443,-0.483 0.432,-0.498C0.421,-0.513 0.407,-0.524 0.39,-0.531C0.373,-0.538 0.352,-0.542 0.328,-0.542C0.303,-0.542 0.279,-0.536 0.256,-0.524C0.233,-0.512 0.213,-0.495 0.196,-0.474C0.179,-0.453 0.168,-0.43 0.162,-0.406C0.155,-0.382 0.152,-0.334 0.152,-0.262L0.152,-0.06L0.069,-0.06L0.069,-0.605L0.152,-0.605L0.152,-0.523C0.206,-0.587 0.27,-0.619 0.344,-0.619C0.383,-0.619 0.419,-0.609 0.451,-0.589C0.483,-0.568 0.507,-0.54 0.523,-0.505C0.539,-0.469 0.547,-0.414 0.547,-0.34L0.547,-0.06Z" style="fill:white;fill-rule:nonzero;"/>
            </g>
            <g transform="matrix(15.9997,-0.101642,0.101642,15.9997,1613.65,1310.15)">
                <path d="M0.614,-0.188C0.614,-0.116 0.608,-0.063 0.596,-0.028C0.583,0.007 0.564,0.036 0.54,0.06C0.515,0.084 0.485,0.102 0.45,0.115C0.415,0.127 0.376,0.133 0.334,0.133C0.192,0.133 0.097,0.073 0.05,-0.047L0.138,-0.047C0.177,0.022 0.241,0.057 0.331,0.057C0.372,0.057 0.409,0.049 0.442,0.033C0.475,0.017 0.498,-0.004 0.511,-0.031C0.524,-0.058 0.531,-0.099 0.531,-0.154L0.531,-0.159C0.505,-0.13 0.474,-0.107 0.437,-0.092C0.4,-0.077 0.362,-0.069 0.323,-0.069C0.244,-0.069 0.179,-0.096 0.126,-0.15C0.073,-0.204 0.046,-0.268 0.047,-0.341C0.046,-0.418 0.074,-0.483 0.13,-0.538C0.186,-0.592 0.253,-0.619 0.33,-0.619C0.407,-0.619 0.474,-0.588 0.531,-0.525L0.531,-0.605L0.614,-0.605L0.614,-0.188ZM0.534,-0.341C0.534,-0.398 0.515,-0.446 0.477,-0.483C0.438,-0.52 0.391,-0.539 0.336,-0.539C0.277,-0.539 0.228,-0.519 0.189,-0.479C0.149,-0.438 0.129,-0.391 0.129,-0.338C0.129,-0.285 0.148,-0.24 0.186,-0.203C0.224,-0.166 0.273,-0.147 0.332,-0.147C0.391,-0.147 0.44,-0.165 0.478,-0.202C0.515,-0.238 0.534,-0.284 0.534,-0.341Z" style="fill:white;fill-rule:nonzero;"/>
            </g>
            <g transform="matrix(15.9991,0.168116,-0.168116,15.9991,1624.4,1310.09)">
                <path d="M0.613,-0.06L0.532,-0.06L0.532,-0.14C0.473,-0.075 0.404,-0.042 0.327,-0.042C0.249,-0.042 0.183,-0.07 0.128,-0.127C0.073,-0.184 0.046,-0.252 0.046,-0.331C0.046,-0.41 0.074,-0.478 0.129,-0.535C0.184,-0.591 0.252,-0.619 0.332,-0.619C0.411,-0.619 0.478,-0.587 0.532,-0.522L0.532,-0.81L0.613,-0.81L0.613,-0.06ZM0.333,-0.119C0.386,-0.119 0.433,-0.139 0.474,-0.178C0.515,-0.217 0.536,-0.267 0.536,-0.328C0.536,-0.388 0.517,-0.438 0.479,-0.479C0.44,-0.519 0.392,-0.539 0.334,-0.539C0.275,-0.539 0.227,-0.518 0.188,-0.477C0.149,-0.435 0.129,-0.386 0.129,-0.33C0.129,-0.273 0.149,-0.224 0.189,-0.182C0.229,-0.14 0.277,-0.119 0.333,-0.119Z" style="fill:white;fill-rule:nonzero;"/>
            </g>
            <g transform="matrix(15.9939,0.441464,-0.441464,15.9939,1635.37,1310.21)">
                <path d="M0.328,-0.619C0.407,-0.619 0.474,-0.591 0.529,-0.534C0.584,-0.477 0.611,-0.409 0.611,-0.33C0.611,-0.251 0.584,-0.183 0.53,-0.127C0.475,-0.07 0.408,-0.042 0.328,-0.042C0.248,-0.042 0.181,-0.07 0.126,-0.127C0.071,-0.183 0.044,-0.251 0.044,-0.33C0.044,-0.409 0.071,-0.477 0.127,-0.534C0.182,-0.591 0.249,-0.619 0.328,-0.619ZM0.328,-0.121C0.383,-0.121 0.431,-0.141 0.47,-0.182C0.509,-0.222 0.528,-0.271 0.528,-0.328C0.528,-0.385 0.508,-0.434 0.469,-0.476C0.429,-0.517 0.382,-0.538 0.328,-0.538C0.273,-0.538 0.226,-0.517 0.187,-0.476C0.148,-0.434 0.128,-0.384 0.128,-0.327C0.128,-0.27 0.147,-0.221 0.185,-0.181C0.223,-0.141 0.271,-0.121 0.328,-0.121Z" style="fill:white;fill-rule:nonzero;"/>
            </g>
            <g transform="matrix(15.9851,0.690644,-0.690644,15.9851,1645.85,1310.5)">
                <path d="M0.547,-0.06L0.465,-0.06L0.465,-0.32C0.465,-0.38 0.462,-0.421 0.457,-0.443C0.451,-0.464 0.443,-0.483 0.432,-0.498C0.421,-0.513 0.407,-0.524 0.39,-0.531C0.373,-0.538 0.352,-0.542 0.328,-0.542C0.303,-0.542 0.279,-0.536 0.256,-0.524C0.233,-0.512 0.213,-0.495 0.196,-0.474C0.179,-0.453 0.168,-0.43 0.162,-0.406C0.155,-0.382 0.152,-0.334 0.152,-0.262L0.152,-0.06L0.069,-0.06L0.069,-0.605L0.152,-0.605L0.152,-0.523C0.206,-0.587 0.27,-0.619 0.344,-0.619C0.383,-0.619 0.419,-0.609 0.451,-0.589C0.483,-0.568 0.507,-0.54 0.523,-0.505C0.539,-0.469 0.547,-0.414 0.547,-0.34L0.547,-0.06Z" style="fill:white;fill-rule:nonzero;"/>
            </g>
            <g transform="matrix(15.9727,0.933414,-0.933414,15.9727,1655.6,1310.92)">
                <path d="M0.614,-0.188C0.614,-0.116 0.608,-0.063 0.596,-0.028C0.583,0.007 0.564,0.036 0.54,0.06C0.515,0.084 0.485,0.102 0.45,0.115C0.415,0.127 0.376,0.133 0.334,0.133C0.192,0.133 0.097,0.073 0.05,-0.047L0.138,-0.047C0.177,0.022 0.241,0.057 0.331,0.057C0.372,0.057 0.409,0.049 0.442,0.033C0.475,0.017 0.498,-0.004 0.511,-0.031C0.524,-0.058 0.531,-0.099 0.531,-0.154L0.531,-0.159C0.505,-0.13 0.474,-0.107 0.437,-0.092C0.4,-0.077 0.362,-0.069 0.323,-0.069C0.244,-0.069 0.179,-0.096 0.126,-0.15C0.073,-0.204 0.046,-0.268 0.047,-0.341C0.046,-0.418 0.074,-0.483 0.13,-0.538C0.186,-0.592 0.253,-0.619 0.33,-0.619C0.407,-0.619 0.474,-0.588 0.531,-0.525L0.531,-0.605L0.614,-0.605L0.614,-0.188ZM0.534,-0.341C0.534,-0.398 0.515,-0.446 0.477,-0.483C0.438,-0.52 0.391,-0.539 0.336,-0.539C0.277,-0.539 0.228,-0.519 0.189,-0.479C0.149,-0.438 0.129,-0.391 0.129,-0.338C0.129,-0.285 0.148,-0.24 0.186,-0.203C0.224,-0.166 0.273,-0.147 0.332,-0.147C0.391,-0.147 0.44,-0.165 0.478,-0.202C0.515,-0.238 0.534,-0.284 0.534,-0.341Z" style="fill:white;fill-rule:nonzero;"/>
            </g>
            <g transform="matrix(15.9553,1.19533,-1.19533,15.9553,1666.35,1311.54)">
                <path d="M0.152,-0.522C0.206,-0.587 0.273,-0.619 0.352,-0.619C0.431,-0.619 0.499,-0.591 0.554,-0.535C0.609,-0.478 0.637,-0.41 0.637,-0.331C0.637,-0.252 0.61,-0.184 0.555,-0.127C0.5,-0.07 0.434,-0.042 0.357,-0.042C0.28,-0.042 0.211,-0.075 0.152,-0.14L0.152,0.133L0.07,0.133L0.07,-0.605L0.152,-0.605L0.152,-0.522ZM0.352,-0.119C0.407,-0.119 0.454,-0.139 0.495,-0.181C0.535,-0.222 0.555,-0.271 0.555,-0.329C0.555,-0.387 0.535,-0.437 0.496,-0.478C0.456,-0.519 0.407,-0.539 0.35,-0.539C0.293,-0.539 0.245,-0.519 0.206,-0.479C0.167,-0.438 0.147,-0.388 0.147,-0.329C0.147,-0.27 0.167,-0.22 0.207,-0.18C0.247,-0.139 0.295,-0.119 0.352,-0.119Z" style="fill:white;fill-rule:nonzero;"/>
            </g>
            <g transform="matrix(15.9352,1.43801,-1.43801,15.9352,1677.24,1312.36)">
                <path d="M0.612,-0.06L0.531,-0.06L0.531,-0.14C0.472,-0.075 0.403,-0.042 0.326,-0.042C0.249,-0.042 0.183,-0.071 0.128,-0.128C0.073,-0.185 0.045,-0.253 0.045,-0.332C0.045,-0.411 0.073,-0.478 0.128,-0.535C0.183,-0.591 0.251,-0.619 0.331,-0.619C0.41,-0.619 0.477,-0.587 0.531,-0.522L0.531,-0.605L0.612,-0.605L0.612,-0.06ZM0.332,-0.119C0.387,-0.119 0.435,-0.139 0.475,-0.179C0.515,-0.219 0.535,-0.269 0.535,-0.329C0.535,-0.388 0.515,-0.438 0.476,-0.479C0.437,-0.519 0.389,-0.539 0.332,-0.539C0.275,-0.539 0.226,-0.518 0.187,-0.477C0.148,-0.435 0.128,-0.386 0.128,-0.329C0.128,-0.272 0.148,-0.223 0.188,-0.182C0.228,-0.14 0.276,-0.119 0.332,-0.119Z" style="fill:white;fill-rule:nonzero;"/>
            </g>
            <g transform="matrix(15.9195,1.60324,-1.60324,15.9195,1688.11,1313.36)">
                <path d="M0.1,-0.81C0.118,-0.81 0.133,-0.804 0.146,-0.792C0.158,-0.779 0.164,-0.764 0.164,-0.747C0.164,-0.729 0.158,-0.714 0.146,-0.702C0.133,-0.689 0.118,-0.683 0.101,-0.683C0.083,-0.683 0.068,-0.689 0.056,-0.702C0.043,-0.715 0.037,-0.729 0.037,-0.747C0.037,-0.764 0.043,-0.778 0.056,-0.791C0.068,-0.804 0.083,-0.81 0.1,-0.81ZM0.142,-0.06L0.059,-0.06L0.059,-0.605L0.142,-0.605L0.142,-0.06Z" style="fill:white;fill-rule:nonzero;"/>
            </g>
            <g transform="matrix(15.9101,1.69357,-1.69357,15.9101,1691.3,1313.68)">
                <path d="M0.151,-0.231C0.17,-0.231 0.186,-0.225 0.199,-0.212C0.212,-0.199 0.218,-0.183 0.218,-0.164C0.218,-0.145 0.212,-0.129 0.199,-0.116C0.186,-0.102 0.17,-0.096 0.152,-0.096C0.133,-0.096 0.117,-0.103 0.104,-0.116C0.091,-0.129 0.084,-0.145 0.084,-0.164C0.084,-0.183 0.091,-0.199 0.104,-0.212C0.117,-0.225 0.133,-0.231 0.151,-0.231Z" style="fill:white;fill-rule:nonzero;"/>
            </g>
            <g transform="matrix(15.8922,1.85389,-1.85389,15.8922,1695.7,1314.13)">
                <path d="M0.602,-0.171C0.573,-0.129 0.536,-0.097 0.49,-0.075C0.443,-0.053 0.393,-0.042 0.339,-0.042C0.255,-0.042 0.185,-0.07 0.129,-0.125C0.072,-0.18 0.044,-0.248 0.044,-0.328C0.044,-0.408 0.072,-0.476 0.129,-0.534C0.186,-0.591 0.259,-0.619 0.349,-0.619C0.402,-0.619 0.452,-0.607 0.497,-0.584C0.542,-0.561 0.577,-0.528 0.602,-0.486L0.537,-0.445C0.488,-0.508 0.425,-0.54 0.346,-0.54C0.284,-0.54 0.232,-0.52 0.19,-0.481C0.148,-0.441 0.127,-0.392 0.127,-0.333C0.127,-0.274 0.148,-0.224 0.189,-0.182C0.23,-0.14 0.283,-0.119 0.346,-0.119C0.422,-0.119 0.486,-0.151 0.538,-0.215L0.602,-0.171Z" style="fill:white;fill-rule:nonzero;"/>
            </g>
            <g transform="matrix(15.8637,2.08365,-2.08365,15.8637,1705.98,1315.33)">
                <path d="M0.328,-0.619C0.407,-0.619 0.474,-0.591 0.529,-0.534C0.584,-0.477 0.611,-0.409 0.611,-0.33C0.611,-0.251 0.584,-0.183 0.53,-0.127C0.475,-0.07 0.408,-0.042 0.328,-0.042C0.248,-0.042 0.181,-0.07 0.126,-0.127C0.071,-0.183 0.044,-0.251 0.044,-0.33C0.044,-0.409 0.071,-0.477 0.127,-0.534C0.182,-0.591 0.249,-0.619 0.328,-0.619ZM0.328,-0.121C0.383,-0.121 0.431,-0.141 0.47,-0.182C0.509,-0.222 0.528,-0.271 0.528,-0.328C0.528,-0.385 0.508,-0.434 0.469,-0.476C0.429,-0.517 0.382,-0.538 0.328,-0.538C0.273,-0.538 0.226,-0.517 0.187,-0.476C0.148,-0.434 0.128,-0.384 0.128,-0.327C0.128,-0.27 0.147,-0.221 0.185,-0.181C0.223,-0.141 0.271,-0.121 0.328,-0.121Z" style="fill:white;fill-rule:nonzero;"/>
            </g>
            <g transform="matrix(15.8247,2.36185,-2.36185,15.8247,1716.37,1316.67)">
                <path d="M0.877,-0.06L0.793,-0.06L0.793,-0.357C0.793,-0.404 0.79,-0.439 0.785,-0.461C0.779,-0.483 0.767,-0.501 0.748,-0.517C0.729,-0.532 0.704,-0.539 0.673,-0.539C0.642,-0.539 0.612,-0.529 0.585,-0.509C0.558,-0.489 0.539,-0.462 0.528,-0.428C0.517,-0.393 0.512,-0.342 0.512,-0.275L0.512,-0.06L0.431,-0.06L0.431,-0.339C0.431,-0.394 0.428,-0.433 0.423,-0.457C0.417,-0.481 0.404,-0.501 0.385,-0.516C0.366,-0.531 0.341,-0.539 0.312,-0.539C0.283,-0.539 0.255,-0.53 0.229,-0.512C0.202,-0.493 0.183,-0.469 0.17,-0.44C0.157,-0.41 0.151,-0.361 0.151,-0.292L0.151,-0.06L0.069,-0.06L0.069,-0.605L0.151,-0.605L0.151,-0.528C0.198,-0.589 0.256,-0.619 0.326,-0.619C0.364,-0.619 0.399,-0.609 0.43,-0.589C0.46,-0.568 0.483,-0.539 0.496,-0.502C0.519,-0.54 0.547,-0.569 0.581,-0.589C0.615,-0.609 0.651,-0.619 0.689,-0.619C0.741,-0.619 0.785,-0.601 0.822,-0.564C0.859,-0.527 0.877,-0.458 0.877,-0.357L0.877,-0.06Z" style="fill:white;fill-rule:nonzero;"/>
            </g>
        </g>
    </g>
</svg>
