<?xml version="1.0" encoding="UTF-8" standalone="no"?>
<!DOCTYPE svg PUBLIC "-//W3C//DTD SVG 1.1//EN" "http://www.w3.org/Graphics/SVG/1.1/DTD/svg11.dtd">
<svg width="100%" height="100%" viewBox="0 0 1219 850" version="1.1" xmlns="http://www.w3.org/2000/svg" xmlns:xlink="http://www.w3.org/1999/xlink" xml:space="preserve" xmlns:serif="http://www.serif.com/" style="fill-rule:evenodd;clip-rule:evenodd;stroke-linejoin:round;stroke-miterlimit:2;">
    <g transform="matrix(1,0,0,1,-3918.41,-3118.93)">
        <path id="ori" d="M4527.79,3118.93C4868.3,3118.93 4975.93,3131.34 5025.66,3155.28C5039.89,3161.77 5054.38,3172.68 5070.62,3189.71C5079.78,3199.31 5087.68,3209.41 5094.27,3219.64C5121.75,3259.84 5137.16,3325.7 5137.16,3543.73C5137.16,3761.77 5121.75,3827.62 5094.27,3867.82C5087.68,3878.06 5079.78,3888.16 5070.62,3897.75C5054.38,3914.79 5039.89,3925.7 5025.66,3932.18C4975.93,3956.13 4868.3,3968.53 4527.79,3968.53L4530.89,3966.37L4527.79,3966.96L4521.73,3965.42C4523.8,3966.49 4525.81,3967.52 4527.79,3968.53C4187.27,3968.53 4079.64,3956.13 4029.91,3932.18C4015.68,3925.7 4001.2,3914.79 3984.95,3897.75C3975.8,3888.16 3967.89,3878.06 3961.31,3867.82C3933.82,3827.62 3918.41,3761.77 3918.41,3543.73C3918.41,3325.7 3933.82,3259.84 3961.31,3219.64C3967.89,3209.41 3975.8,3199.31 3984.95,3189.71C4001.2,3172.68 4015.68,3161.77 4029.91,3155.28C4079.64,3131.34 4187.27,3118.93 4527.79,3118.93Z" style="fill:rgb(255,232,0);"/>
        <g transform="matrix(1,0,0,1,3827.43,2640.48)">
            <g id="五角星手绘" transform="matrix(1,0,0,1,-3828.06,-2640.48)">
                <path d="M4528.42,3670.99L4368.75,3755.09L4398.55,3575.19L4269.84,3451.23L4450.14,3423.97L4528.42,3263.26L4606.69,3423.97L4786.99,3451.23L4658.29,3575.19L4688.09,3755.09L4528.42,3670.99Z" style="fill:white;"/>
            </g>
            <g transform="matrix(0.987563,0,0,0.987563,18.1025,62.1464)">
                <circle cx="690.844" cy="850.9" r="77.956" style="fill:rgb(255,0,145);"/>
            </g>
        </g>
    </g>
</svg>
