<?xml version="1.0" encoding="UTF-8" standalone="no"?>
<!DOCTYPE svg PUBLIC "-//W3C//DTD SVG 1.1//EN" "http://www.w3.org/Graphics/SVG/1.1/DTD/svg11.dtd">
<svg width="100%" height="100%" viewBox="0 0 362 458" version="1.1" xmlns="http://www.w3.org/2000/svg" xmlns:xlink="http://www.w3.org/1999/xlink" xml:space="preserve" xmlns:serif="http://www.serif.com/" style="fill-rule:evenodd;clip-rule:evenodd;stroke-linejoin:round;stroke-miterlimit:2;">
    <g>
        <g transform="matrix(0.832388,0,0,0.832388,-0.000829869,-2.67221e-14)">
            <path d="M0.48,105.261C-0.089,81.655 0,58.127 0,35.036C69.965,11.947 143.2,-0 216.989,-0C290.777,-0 364.012,11.947 433.977,35.036C433.977,58.08 434.547,81.717 433.977,105.261C364.258,82.316 290.744,70.264 217.228,70.264C143.544,70.264 70.346,82.212 0.48,105.261Z" style="fill:rgb(15,14,7);fill-rule:nonzero;"/>
        </g>
        <g transform="matrix(0.601396,0,0,0.601396,-0.80423,55.7133)">
            <path d="M602,53.051C602,198.732 602.596,356.311 523.067,484.405C512.729,501.057 501.232,516.978 488.661,532.015C469.183,555.312 447.255,576.501 423.411,595.301C386.364,624.51 345.118,648.011 302,667C259.02,648.072 217.914,624.639 180.963,595.555C157.162,576.822 135.257,555.718 115.778,532.519C103.177,517.511 91.65,501.626 81.276,484.999C1.312,356.836 2,198.963 2,53.051C98.731,21.129 199.983,4.611 302,4.611C404.017,4.611 505.269,21.129 602,53.051Z" style="fill:rgb(35,218,28);fill-rule:nonzero;"/>
        </g>
        <g transform="matrix(0.174224,4.26726e-17,-4.26501e-17,0.174132,94.9264,104.868)">
            <path d="M491.307,1582.46C491.307,1582.46 276.366,1523.55 50.819,1359.68C-174.728,1195.81 -297.172,1009.6 -297.172,1009.6L-297.172,1009.6C-297.172,1009.6 -307.569,786.97 -221.417,521.824C-135.266,256.678 4,82.682 4,82.682C4,82.682 212.516,4 491.307,4C770.098,4 978.613,82.682 978.613,82.682C978.613,82.682 1117.88,256.678 1204.03,521.824C1290.18,786.97 1279.79,1009.6 1279.79,1009.6C1279.79,1009.6 1157.34,1195.81 931.794,1359.68C706.248,1523.55 491.307,1582.46 491.307,1582.46" style="fill:rgb(255,214,10);"/>
        </g>
        <g transform="matrix(0.213881,0.210876,-0.210876,0.213881,346.927,-196.87)">
            <path d="M404.274,1197.08L600.875,1266.62L773.034,1141.54L767.65,1350.01L939.809,1475.09L739.88,1534.39L674.121,1736.78L555.943,1564.96L343.142,1564.96L470.033,1399.47L404.274,1197.08Z" style="fill:white;"/>
        </g>
        <g transform="matrix(0.288742,0,0,0.288742,-495.167,-882.557)">
            <circle cx="2341.5" cy="3894.58" r="93.143" style="fill:rgb(250,46,0);"/>
        </g>
    </g>
</svg>
